<?xml version="1.0" standalone="no"?>
<!DOCTYPE svg PUBLIC "-//W3C//DTD SVG 20010904//EN"
 "http://www.w3.org/TR/2001/REC-SVG-20010904/DTD/svg10.dtd">
<svg version="1.0" xmlns="http://www.w3.org/2000/svg"
 width="1700.000000pt" height="818.000000pt" viewBox="0 0 1700.000000 818.000000"
 preserveAspectRatio="xMidYMid meet">

<g transform="translate(0.000000,818.000000) scale(0.100000,-0.100000)"
fill="#000000" stroke="none">
<path d="M5776 8169 c-169 -41 -508 -275 -911 -629 -922 -812 -2459 -2402
-4316 -4466 -559 -621 -531 -588 -536 -642 -4 -38 0 -54 19 -82 49 -73 -69
-88 1593 201 824 142 1514 262 1534 265 l36 5 94 -228 c655 -1587 1013 -2270
1307 -2491 163 -123 321 -131 465 -26 250 185 448 753 653 1882 55 300 147
874 187 1167 12 88 25 163 28 167 3 3 2477 434 5496 958 4069 705 5496 956
5515 969 38 27 63 85 55 128 -8 45 -52 90 -96 98 -23 4 -1722 -286 -5484 -939
-2997 -520 -5450 -944 -5451 -943 0 1 18 151 42 332 264 2024 311 3395 137
3950 -77 243 -210 362 -367 324z m73 -277 c48 -69 97 -277 123 -532 17 -163
17 -945 0 -1215 -33 -521 -88 -1120 -158 -1710 -43 -371 -114 -908 -119 -913
-4 -4 -2266 -398 -2319 -404 -29 -3 -29 -2 -111 195 -45 109 -92 209 -105 222
-67 71 -185 39 -211 -57 -9 -36 -6 -50 46 -176 100 -243 96 -232 82 -237 -6
-2 -588 -103 -1292 -225 -704 -121 -1288 -222 -1299 -225 -16 -3 -15 0 6 23
14 15 155 171 313 347 738 820 1526 1671 2249 2430 337 353 1400 1412 1631
1625 379 350 676 600 870 733 91 63 240 146 262 147 6 0 21 -13 32 -28z m-189
-4653 c0 -24 -94 -643 -136 -894 -122 -730 -258 -1329 -374 -1645 -58 -159
-146 -327 -204 -386 -46 -48 -57 -54 -92 -54 -161 0 -416 378 -770 1137 -154
331 -640 1461 -631 1469 2 2 2174 381 2195 383 6 1 12 -4 12 -10z"/>
<path d="M11125 5530 c-78 -16 -157 -53 -208 -94 -111 -90 -157 -184 -164
-336 -9 -171 43 -315 148 -415 108 -104 247 -143 390 -111 182 40 301 146 351
309 17 57 20 86 16 175 -13 279 -178 465 -423 477 -38 2 -88 0 -110 -5z m178
-200 c90 -57 142 -172 142 -316 0 -81 -3 -97 -30 -149 -42 -82 -94 -118 -179
-123 -78 -5 -125 16 -184 84 -64 71 -86 139 -86 259 0 109 12 147 61 205 38
46 96 70 169 70 50 0 68 -5 107 -30z"/>
<path d="M10402 5399 c-321 -41 -503 -309 -422 -623 27 -105 62 -166 136 -236
127 -118 308 -145 506 -74 76 28 148 68 148 83 0 18 -59 146 -67 146 -4 0 -35
-14 -68 -32 -154 -79 -289 -65 -383 42 -56 63 -77 129 -76 235 0 125 42 199
140 249 75 39 197 48 271 20 27 -10 32 3 36 105 2 66 1 69 -23 76 -48 13 -136
17 -198 9z"/>
<path d="M9370 5208 c-79 -28 -131 -66 -172 -127 -17 -25 -33 -48 -34 -50 -2
-2 -21 12 -42 31 -59 53 -117 72 -204 66 -94 -7 -157 -35 -218 -98 -27 -27
-51 -47 -53 -43 -3 5 -8 23 -12 41 -3 17 -10 32 -13 32 -13 0 -175 -30 -178
-33 -1 -1 6 -42 17 -90 10 -48 46 -241 79 -429 33 -189 63 -355 66 -369 l5
-26 95 17 c52 10 98 20 101 24 3 3 -15 129 -42 278 -26 150 -48 294 -47 320 3
138 142 233 248 167 59 -36 78 -95 135 -414 28 -159 52 -291 54 -293 3 -3 169
25 191 33 7 2 -6 94 -37 272 -27 147 -48 294 -49 326 0 96 47 165 131 187 49
13 107 -1 136 -32 54 -59 65 -99 129 -470 30 -176 41 -218 53 -218 20 0 183
28 187 33 5 5 -95 560 -112 617 -61 211 -231 312 -414 248z"/>
<path d="M6910 5119 c-132 -17 -362 -78 -375 -100 -6 -9 203 -1219 212 -1229
4 -4 193 26 199 33 3 2 -16 120 -41 262 -25 141 -45 259 -43 260 2 2 44 9 95
16 72 10 100 10 132 1 59 -18 109 -82 161 -204 66 -159 120 -258 139 -258 20
0 195 31 200 36 2 2 -10 25 -27 53 -17 27 -56 107 -87 178 -32 70 -66 145 -77
166 -24 49 -93 124 -130 143 l-27 14 42 43 c106 105 130 257 64 401 -47 102
-137 165 -267 185 -72 12 -78 12 -170 0z m120 -180 c72 -15 116 -56 136 -126
44 -150 -44 -249 -253 -286 l-82 -14 -10 51 c-6 28 -20 105 -31 171 -11 66
-23 132 -26 147 -5 25 -2 28 38 39 106 28 160 33 228 18z"/>
<path d="M7849 4937 c-184 -63 -289 -222 -289 -438 0 -149 54 -295 144 -384
100 -101 235 -138 395 -111 122 21 208 54 299 114 10 7 4 26 -23 85 l-35 77
-47 -29 c-79 -48 -180 -74 -277 -70 -75 4 -89 7 -127 34 -47 33 -97 104 -101
144 -3 25 -2 25 292 77 162 29 297 53 299 54 11 1 -11 135 -33 194 -47 131
-127 219 -234 258 -69 25 -181 23 -263 -5z m199 -161 c15 -8 37 -25 49 -38 22
-24 65 -109 58 -117 -3 -3 -378 -71 -394 -71 -2 0 -1 23 2 52 14 112 96 188
204 188 30 0 66 -6 81 -14z"/>
</g>
</svg>
