<svg width="0" height="0" class="hidden">
  <symbol version="1.0" xmlns="http://www.w3.org/2000/svg" preserveAspectRatio="xMidYMid meet" viewBox="0 0 100.000000 100.000000" id="globe-solid">
    <g transform="translate(0.000000,100.000000) scale(0.100000,-0.100000)" fill="var(--clr-primary-400)" stroke="none">
      <path d="M433 948 c-17 -18 -40 -51 -51 -74 -19 -37 -52 -148 -52 -173 0 -8
53 -11 170 -11 117 0 170 3 170 11 0 6 -7 38 -16 72 -46 178 -144 256 -221
175z"></path>
      <path d="M279 928 c-73 -36 -166 -124 -198 -186 -11 -22 -21 -44 -21 -47 0 -3
47 -5 104 -5 l104 0 7 45 c8 57 39 148 65 192 11 18 16 33 11 33 -4 0 -37 -14
-72 -32z"></path>
      <path d="M660 928 c26 -45 57 -135 65 -193 l7 -45 104 0 c57 0 104 2 104 5 0
3 -10 25 -21 48 -41 79 -170 185 -257 212 l-22 6 20 -33z"></path>
      <path d="M25 599 c-11 -33 -7 -186 5 -209 10 -19 18 -20 116 -18 l106 3 1 123
2 122 -112 0 c-104 0 -112 -1 -118 -21z"></path>
      <path d="M316 598 c-8 -30 -8 -157 0 -197 l7 -31 177 0 177 0 7 38 c8 48 8
141 0 181 l-6 31 -178 0 c-176 0 -178 0 -184 -22z"></path>
      <path d="M746 498 l1 -123 107 -3 106 -3 11 28 c12 32 15 145 4 191 l-7 32
-111 0 -112 0 1 -122z"></path>
      <path d="M60 305 c0 -3 10 -25 21 -47 41 -80 169 -186 257 -213 l22 -6 -20 33
c-26 45 -57 135 -65 193 l-7 45 -104 0 c-57 0 -104 -2 -104 -5z"></path>
      <path d="M330 299 c0 -25 33 -136 52 -173 70 -141 166 -141 236 0 19 37 52
148 52 173 0 8 -53 11 -170 11 -117 0 -170 -3 -170 -11z"></path>
      <path d="M725 265 c-8 -58 -39 -148 -65 -193 l-20 -33 22 6 c88 27 216 133
257 213 11 22 21 44 21 47 0 3 -47 5 -104 5 l-104 0 -7 -45z"></path>
    </g>
  </symbol>
</svg>